<svg xmlns="http://www.w3.org/2000/svg" xmlns:xlink="http://www.w3.org/1999/xlink" width="500" zoomAndPan="magnify" viewBox="0 0 375 374.999991" height="500" preserveAspectRatio="xMidYMid meet" version="1.0"><defs><clipPath id="c72ebd6d86"><path d="M 29.863281 33 L 344.863281 33 L 344.863281 342 L 29.863281 342 Z M 29.863281 33 " clip-rule="nonzero"/></clipPath><clipPath id="eee2bc9774"><path d="M 29.863281 32 L 323 32 L 323 228 L 29.863281 228 Z M 29.863281 32 " clip-rule="nonzero"/></clipPath><clipPath id="a787f9f61a"><path d="M 74 89 L 344.863281 89 L 344.863281 343 L 74 343 Z M 74 89 " clip-rule="nonzero"/></clipPath></defs><g clip-path="url(#c72ebd6d86)"><path fill="#ffeeda" d="M 322.433594 242.46875 L 322.433594 60.445312 C 322.097656 45.207031 310.035156 33.015625 294.742188 33.015625 L 104.109375 33.015625 C 62.996094 33.691406 29.863281 67.21875 29.863281 108.363281 C 29.863281 122.25 33.601562 134.101562 39.378906 144.601562 C 44.136719 153.234375 51.78125 161.363281 59.257812 167.628906 C 61.296875 169.320312 60.277344 168.644531 66.730469 172.707031 C 75.738281 178.128906 85.929688 180.835938 85.929688 180.835938 L 85.929688 289.710938 C 86.101562 294.792969 86.78125 299.871094 87.96875 304.441406 C 92.21875 319.683594 102.921875 331.535156 117.363281 337.292969 C 123.480469 339.660156 130.277344 341.355469 137.582031 341.355469 L 289.816406 341.863281 C 320.226562 341.863281 344.863281 317.3125 344.863281 287.003906 C 344.863281 268.546875 336.027344 252.460938 322.433594 242.46875 Z M 322.433594 242.46875 " fill-opacity="1" fill-rule="nonzero"/></g><path fill="#ebc28e" d="M 326.40625 288.210938 C 325.722656 307.765625 309.699219 323.40625 290.09375 323.40625 L 184.902344 323.066406 C 193.257812 313.375 198.371094 300.792969 198.371094 287.191406 C 198.371094 265.601562 185.414062 250.808594 185.414062 250.808594 L 290.09375 250.808594 C 310.210938 250.808594 326.40625 267.128906 326.40625 287.191406 Z M 326.40625 288.210938 " fill-opacity="1" fill-rule="nonzero"/><g clip-path="url(#eee2bc9774)"><path fill="#190602" d="M 69.089844 151.703125 C 57.03125 140.324219 48.542969 125.550781 48.542969 107.890625 L 48.542969 106.023438 C 49.5625 76.136719 74.183594 52.023438 104.070312 51.003906 L 294.601562 51.003906 C 299.523438 51.171875 303.597656 54.738281 303.597656 59.832031 L 303.597656 220.984375 C 308.015625 221.832031 310.050781 222.34375 314.296875 223.871094 C 317.523438 225.058594 322.277344 227.777344 322.277344 227.777344 L 322.277344 59.832031 C 321.941406 44.550781 309.882812 32.324219 294.601562 32.324219 L 104.070312 32.324219 C 62.976562 33.003906 29.863281 66.625 29.863281 107.890625 C 29.863281 131.832031 40.730469 152.382812 58.730469 166.816406 C 59.917969 167.835938 61.109375 169.023438 64.335938 169.023438 C 69.9375 169.023438 73.84375 164.605469 73.675781 159.683594 C 73.503906 155.605469 71.808594 154.078125 69.089844 151.703125 Z M 69.089844 151.703125 " fill-opacity="1" fill-rule="nonzero"/></g><g clip-path="url(#a787f9f61a)"><path fill="#190602" d="M 289.84375 231.851562 L 140.410156 231.851562 C 130.390625 231.851562 122.238281 240.171875 122.238281 250.191406 L 122.238281 271.589844 C 122.578125 281.4375 131.070312 290.097656 140.917969 290.097656 L 151.957031 290.097656 L 151.957031 271.589844 L 140.917969 271.589844 L 140.917969 250.53125 C 140.917969 250.53125 143.636719 250.53125 147.03125 250.53125 C 165.878906 250.53125 179.804688 268.023438 179.804688 286.871094 C 179.804688 303.511719 164.691406 324.738281 139.390625 323.042969 C 116.804688 321.515625 104.75 301.476562 104.75 286.871094 L 104.75 104.664062 C 104.75 96.511719 98.125 89.71875 89.804688 89.71875 L 74.863281 89.71875 L 74.863281 108.398438 L 85.898438 108.398438 L 85.898438 286.871094 C 85.390625 323.210938 111.710938 341.550781 139.21875 341.550781 L 289.84375 342.058594 C 320.242188 342.058594 344.863281 317.4375 344.863281 287.042969 C 344.863281 256.644531 320.242188 231.851562 289.84375 231.851562 Z M 326.011719 288.0625 C 325.335938 307.589844 309.371094 323.210938 289.84375 323.210938 L 185.070312 322.871094 C 193.390625 313.191406 198.484375 300.625 198.484375 287.042969 C 198.484375 265.476562 185.578125 250.703125 185.578125 250.703125 L 289.84375 250.703125 C 309.882812 250.703125 326.011719 267.003906 326.011719 287.042969 Z M 326.011719 288.0625 " fill-opacity="1" fill-rule="nonzero"/></g><path fill="#190602" d="M 250.789062 111.625 L 137.015625 111.625 L 137.015625 93.117188 L 250.789062 93.117188 C 255.375 93.117188 258.941406 96.851562 258.941406 101.269531 L 258.941406 103.476562 C 258.941406 108.058594 255.203125 111.625 250.789062 111.625 Z M 250.789062 111.625 " fill-opacity="1" fill-rule="nonzero"/><path fill="#190602" d="M 250.789062 199.417969 L 137.015625 199.417969 L 137.015625 180.910156 L 250.789062 180.910156 C 255.375 180.910156 258.941406 184.644531 258.941406 189.058594 L 258.941406 191.265625 C 258.941406 195.683594 255.203125 199.417969 250.789062 199.417969 Z M 250.789062 199.417969 " fill-opacity="1" fill-rule="nonzero"/><path fill="#190602" d="M 270.484375 155.605469 L 136.84375 155.605469 L 136.84375 137.097656 L 270.484375 137.097656 C 275.070312 137.097656 278.632812 140.832031 278.632812 145.25 L 278.632812 147.457031 C 278.804688 151.871094 275.070312 155.605469 270.484375 155.605469 Z M 270.484375 155.605469 " fill-opacity="1" fill-rule="nonzero"/></svg>