<svg xmlns="http://www.w3.org/2000/svg" xmlns:xlink="http://www.w3.org/1999/xlink" width="500" zoomAndPan="magnify" viewBox="0 0 375 374.999991" height="500" preserveAspectRatio="xMidYMid meet" version="1.0"><defs><clipPath id="4645070c0a"><path d="M 157 75.578125 L 216 75.578125 L 216 299 L 157 299 Z M 157 75.578125 " clip-rule="nonzero"/></clipPath><clipPath id="5dc33ba4dd"><path d="M 212 193 L 344.816406 193 L 344.816406 299.078125 L 212 299.078125 Z M 212 193 " clip-rule="nonzero"/></clipPath><clipPath id="29fa3b6839"><path d="M 30.320312 196 L 163 196 L 163 299.078125 L 30.320312 299.078125 Z M 30.320312 196 " clip-rule="nonzero"/></clipPath><clipPath id="e6b57a5b3d"><path d="M 82 148 L 170 148 L 170 299.078125 L 82 299.078125 Z M 82 148 " clip-rule="nonzero"/></clipPath><clipPath id="2a6350958c"><path d="M 203 148 L 291 148 L 291 299.078125 L 203 299.078125 Z M 203 148 " clip-rule="nonzero"/></clipPath></defs><g clip-path="url(#4645070c0a)"><path fill="#decfb1" d="M 170.398438 99.199219 C 171.402344 100.339844 171.546875 101.605469 172.078125 102.679688 C 172.582031 103.6875 172.691406 104.886719 173.578125 106.003906 C 173.964844 105.3125 174.296875 104.828125 174.527344 104.296875 C 176.71875 99.265625 178.882812 94.234375 181.0625 89.203125 C 182.71875 85.378906 184.359375 81.542969 186.042969 77.726562 C 186.371094 76.976562 186.613281 76.144531 187.199219 75.578125 C 187.871094 75.679688 187.984375 76.167969 188.144531 76.574219 C 191.191406 84.339844 194.226562 92.113281 197.265625 99.875 C 197.914062 101.527344 198.570312 103.179688 199.242188 104.828125 C 199.378906 105.15625 199.601562 105.453125 199.921875 105.984375 C 201.171875 103.769531 201.671875 101.507812 202.753906 99.246094 C 203.324219 99.910156 203.402344 100.5 203.527344 101.046875 C 204.464844 105.269531 205.386719 109.488281 206.320312 113.710938 C 208.105469 121.785156 209.894531 129.855469 211.675781 137.925781 C 212.976562 143.804688 214.261719 149.695312 215.574219 155.570312 C 215.847656 156.796875 215.886719 157.996094 215.636719 159.238281 C 213.078125 171.804688 210.527344 184.375 208 196.945312 C 206.234375 205.730469 204.515625 214.523438 202.757812 223.3125 C 200.644531 233.839844 198.503906 244.363281 196.390625 254.890625 C 195.101562 261.328125 193.835938 267.769531 192.558594 274.210938 C 191.089844 281.636719 189.625 289.058594 188.148438 296.480469 C 188.015625 297.15625 187.820312 297.820312 187.671875 298.449219 C 187.003906 298.558594 186.960938 298.132812 186.882812 297.777344 C 186.027344 293.769531 185.164062 289.769531 184.332031 285.761719 C 181.996094 274.488281 179.6875 263.21875 177.355469 251.945312 C 175.160156 241.355469 172.9375 230.773438 170.75 220.175781 C 168.328125 208.457031 165.9375 196.726562 163.515625 185 C 161.71875 176.300781 159.90625 167.605469 158.058594 158.914062 C 157.84375 157.894531 157.863281 156.945312 158.078125 155.945312 C 159.128906 151.117188 160.136719 146.273438 161.183594 141.445312 C 163.628906 130.121094 166.082031 118.796875 168.53125 107.472656 C 168.96875 105.433594 169.386719 103.386719 169.832031 101.355469 C 169.96875 100.703125 170.171875 100.066406 170.410156 99.179688 Z M 170.398438 99.199219 " fill-opacity="1" fill-rule="nonzero"/></g><g clip-path="url(#5dc33ba4dd)"><path fill="#decfb1" d="M 344.816406 193.699219 C 343.363281 195.566406 341.867188 196.679688 340.511719 197.914062 C 331.101562 206.507812 321.648438 215.0625 312.21875 223.636719 C 305.476562 229.773438 298.757812 235.929688 292.019531 242.066406 C 283.390625 249.917969 274.75 257.75 266.125 265.605469 C 259.445312 271.691406 252.777344 277.796875 246.101562 283.890625 C 244.335938 285.503906 242.570312 287.128906 240.761719 288.691406 C 240.191406 289.1875 239.519531 289.644531 238.8125 289.894531 C 230.449219 292.890625 222.074219 295.84375 213.695312 298.800781 C 213.355469 298.921875 212.988281 298.964844 212.601562 299.046875 C 212.449219 298.1875 212.996094 297.800781 213.34375 297.347656 C 215.925781 293.972656 218.527344 290.609375 221.121094 287.253906 C 232.027344 273.132812 242.933594 259.011719 253.835938 244.886719 C 262.996094 233.027344 272.164062 221.175781 281.296875 209.296875 C 282.046875 208.320312 282.882812 207.765625 284.113281 207.496094 C 290.070312 206.1875 296.007812 204.78125 301.949219 203.398438 C 311.355469 201.214844 320.761719 199.015625 330.167969 196.832031 C 334.535156 195.816406 338.894531 194.8125 343.261719 193.8125 C 343.625 193.730469 344.011719 193.753906 344.816406 193.703125 Z M 344.816406 193.699219 " fill-opacity="1" fill-rule="nonzero"/></g><g clip-path="url(#29fa3b6839)"><path fill="#decfb1" d="M 30.519531 196.050781 C 31.5625 196.257812 32.617188 196.425781 33.652344 196.671875 C 43.808594 199.058594 53.957031 201.464844 64.117188 203.859375 C 72.84375 205.910156 81.5625 207.964844 90.300781 209.960938 C 91.585938 210.253906 92.488281 210.847656 93.3125 211.882812 C 100.410156 220.847656 107.554688 229.777344 114.691406 238.714844 C 124.09375 250.492188 133.488281 262.273438 142.890625 274.050781 C 149.15625 281.902344 155.414062 289.757812 161.675781 297.617188 C 161.957031 297.96875 162.1875 298.359375 162.628906 299.007812 C 161.910156 298.894531 161.472656 298.902344 161.085938 298.757812 C 155.660156 296.71875 150.25 294.65625 144.828125 292.597656 C 141.9375 291.5 139.0625 290.378906 136.164062 289.304688 C 135.128906 288.925781 134.257812 288.359375 133.429688 287.625 C 126.902344 281.832031 120.332031 276.085938 113.785156 270.308594 C 104.519531 262.132812 95.269531 253.933594 86 245.757812 C 78.875 239.472656 71.726562 233.210938 64.597656 226.925781 C 58.683594 221.714844 52.792969 216.480469 46.886719 211.269531 C 41.792969 206.769531 36.683594 202.28125 31.585938 197.78125 C 31.136719 197.382812 30.742188 196.933594 30.316406 196.515625 C 30.382812 196.359375 30.445312 196.210938 30.515625 196.054688 Z M 30.519531 196.050781 " fill-opacity="1" fill-rule="nonzero"/></g><g clip-path="url(#e6b57a5b3d)"><path fill="#decfb1" d="M 169.773438 299.023438 C 169.152344 298.242188 168.523438 297.480469 167.921875 296.695312 C 158.40625 284.316406 148.90625 271.9375 139.390625 259.5625 C 126.824219 243.203125 114.261719 226.835938 101.667969 210.492188 C 100.613281 209.125 99.820312 207.6875 99.347656 206.015625 C 97.265625 198.660156 95.117188 191.320312 92.988281 183.976562 C 90.234375 174.484375 87.480469 164.992188 84.726562 155.496094 C 84.1875 153.640625 83.648438 151.785156 83.125 149.933594 C 83.042969 149.648438 83.035156 149.34375 82.996094 149.082031 C 83.515625 148.695312 83.773438 149.070312 84.003906 149.3125 C 85.339844 150.710938 86.660156 152.121094 87.972656 153.535156 C 95.136719 161.222656 102.300781 168.910156 109.46875 176.59375 C 109.671875 176.8125 109.933594 176.96875 110.136719 177.132812 C 110.75 176.929688 110.578125 176.5 110.546875 176.144531 C 110.292969 173.378906 110.015625 170.609375 109.753906 167.839844 C 109.722656 167.46875 109.753906 167.085938 109.753906 166.679688 C 110.554688 166.570312 110.933594 167.117188 111.351562 167.511719 C 113.878906 169.898438 116.382812 172.316406 118.890625 174.71875 C 119.839844 175.628906 120.734375 176.601562 121.734375 177.449219 C 122.566406 178.15625 122.898438 178.980469 123.003906 180.042969 C 123.359375 183.503906 123.769531 186.953125 124.21875 190.402344 C 124.347656 191.382812 124.585938 192.386719 124.972656 193.296875 C 129.050781 202.804688 133.15625 212.300781 137.292969 221.785156 C 140.9375 230.140625 144.648438 238.464844 148.320312 246.800781 C 152.890625 257.1875 157.5 267.566406 162.007812 277.984375 C 164.492188 283.722656 166.820312 289.527344 169.183594 295.320312 C 169.640625 296.445312 170.09375 297.601562 169.777344 299.023438 Z M 169.773438 299.023438 " fill-opacity="1" fill-rule="nonzero"/></g><g clip-path="url(#2a6350958c)"><path fill="#decfb1" d="M 263.800781 166.238281 C 263.816406 170.195312 262.863281 173.585938 262.988281 177.285156 C 263.414062 177.054688 263.707031 176.972656 263.890625 176.777344 C 268.382812 171.984375 272.859375 167.183594 277.339844 162.382812 C 281.132812 158.3125 284.925781 154.242188 288.726562 150.179688 C 289.183594 149.691406 289.640625 149.171875 290.550781 148.722656 C 290.386719 149.597656 290.324219 150.1875 290.160156 150.753906 C 288.496094 156.546875 286.824219 162.332031 285.144531 168.117188 C 282.996094 175.53125 280.839844 182.949219 278.683594 190.367188 C 277.070312 195.933594 275.421875 201.484375 273.863281 207.066406 C 273.515625 208.316406 272.800781 209.28125 272.050781 210.257812 C 267.351562 216.394531 262.636719 222.511719 257.925781 228.636719 C 249.359375 239.789062 240.796875 250.941406 232.230469 262.09375 C 223.140625 273.917969 214.054688 285.742188 204.96875 297.5625 C 204.5625 298.089844 204.105469 298.582031 203.675781 299.085938 C 203.121094 298.679688 203.347656 298.300781 203.46875 297.972656 C 204.507812 295.148438 205.4375 292.273438 206.628906 289.515625 C 212.511719 275.898438 218.457031 262.316406 224.398438 248.726562 C 229.9375 236.058594 235.511719 223.410156 241.050781 210.742188 C 243.496094 205.152344 245.851562 199.523438 248.316406 193.9375 C 249.019531 192.351562 249.324219 190.710938 249.5 189.015625 C 249.824219 185.941406 250.210938 182.875 250.503906 179.804688 C 250.589844 178.871094 251.035156 178.222656 251.664062 177.625 C 253.90625 175.5 256.152344 173.371094 258.390625 171.242188 C 259.566406 170.121094 260.714844 168.976562 261.894531 167.859375 C 262.382812 167.394531 262.921875 166.992188 263.804688 166.246094 Z M 263.800781 166.238281 " fill-opacity="1" fill-rule="nonzero"/></g><path fill="#decfb1" d="M 178.613281 298.253906 C 178.273438 297.585938 177.902344 296.929688 177.609375 296.246094 C 173.039062 285.601562 168.488281 274.953125 163.917969 264.308594 C 158.832031 252.464844 153.726562 240.621094 148.644531 228.777344 C 145.507812 221.472656 142.386719 214.152344 139.261719 206.84375 C 137.105469 201.804688 134.953125 196.765625 132.773438 191.734375 C 132.21875 190.449219 131.832031 189.140625 131.679688 187.742188 C 131.003906 181.523438 130.285156 175.304688 129.574219 169.085938 C 128.917969 163.328125 128.253906 157.574219 127.589844 151.820312 C 126.699219 144.070312 125.792969 136.324219 124.898438 128.570312 C 124.589844 125.882812 124.28125 123.195312 123.992188 120.511719 C 123.960938 120.234375 124.03125 119.949219 124.054688 119.660156 C 124.890625 119.613281 125 120.253906 125.261719 120.667969 C 127.464844 124.210938 129.652344 127.761719 131.828125 131.320312 C 137.429688 140.480469 143.007812 149.652344 148.632812 158.796875 C 149.5 160.203125 150.117188 161.65625 150.457031 163.265625 C 151.707031 169.238281 152.988281 175.203125 154.253906 181.171875 C 156.359375 191.066406 158.453125 200.957031 160.554688 210.851562 C 162.242188 218.785156 163.933594 226.71875 165.613281 234.652344 C 167.644531 244.246094 169.648438 253.839844 171.6875 263.433594 C 174 274.316406 176.339844 285.1875 178.667969 296.058594 C 178.8125 296.730469 178.898438 297.414062 179.015625 298.089844 C 178.882812 298.148438 178.75 298.199219 178.617188 298.257812 Z M 178.613281 298.253906 " fill-opacity="1" fill-rule="nonzero"/><path fill="#decfb1" d="M 249.535156 119.808594 C 249.347656 121.648438 249.183594 123.492188 248.96875 125.328125 C 248.570312 128.859375 248.128906 132.386719 247.726562 135.917969 C 247.027344 142.058594 246.335938 148.203125 245.640625 154.347656 C 244.894531 160.875 244.152344 167.40625 243.40625 173.933594 C 242.859375 178.695312 242.335938 183.460938 241.742188 188.214844 C 241.621094 189.195312 241.351562 190.191406 240.96875 191.101562 C 238.792969 196.304688 236.566406 201.484375 234.347656 206.667969 C 230.726562 215.121094 227.101562 223.570312 223.476562 232.019531 C 220.339844 239.332031 217.203125 246.648438 214.070312 253.960938 C 209.875 263.765625 205.675781 273.566406 201.476562 283.363281 C 199.5 287.984375 197.519531 292.597656 195.523438 297.207031 C 195.3125 297.683594 195.003906 298.113281 194.46875 298.492188 C 194.492188 298.089844 194.46875 297.679688 194.546875 297.292969 C 196.367188 288.75 198.21875 280.21875 200.035156 271.675781 C 202.6875 259.207031 205.289062 246.730469 207.941406 234.265625 C 210.089844 224.136719 212.289062 214.015625 214.445312 203.890625 C 216.152344 195.882812 217.816406 187.863281 219.523438 179.851562 C 220.765625 174.03125 222.054688 168.222656 223.292969 162.402344 C 223.503906 161.394531 223.890625 160.507812 224.421875 159.636719 C 231.699219 147.78125 238.960938 135.917969 246.222656 124.050781 C 246.949219 122.863281 247.65625 121.664062 248.394531 120.484375 C 248.582031 120.1875 248.84375 119.933594 249.074219 119.660156 C 249.230469 119.710938 249.386719 119.765625 249.535156 119.820312 Z M 249.535156 119.808594 " fill-opacity="1" fill-rule="nonzero"/></svg>